<svg viewBox="0 0 193.79 81.79" xmlns="http://www.w3.org/2000/svg" xmlns:xlink="http://www.w3.org/1999/xlink" id="Layer_1" overflow="hidden"><defs></defs><path d="M148.58 49.29 148.58 23.28C148.58 21.76 149.81 20.53 151.33 20.53L172.67 20.53C173.91 20.53 174.27 21.47 175.32 22.56 175.32 22.56 192.29 42.58 192.29 46.33L192.29 65.25 174.8 65.25" stroke="#4D4D4D" stroke-width="3" stroke-miterlimit="10" fill="none"/><line x1="157" y1="65.73" x2="121.08" y2="65.73" stroke="#4D4D4D" stroke-width="3" stroke-miterlimit="10" fill="none"/><path d="M22.58 65.73 1.5 65.73 1.5 1.5 149.07 1.5 149.07 13.94" stroke="#4D4D4D" stroke-width="3" stroke-miterlimit="10" fill="none"/><line x1="103.33" y1="65.73" x2="38.75" y2="65.73" stroke="#4D4D4D" stroke-width="3" stroke-miterlimit="10" fill="none"/><circle cx="166.7" cy="70.58" r="9.7" stroke="#4D4D4D" stroke-width="3" stroke-miterlimit="10" fill="none" transform="matrix(0.922942 -0.38494 0.38494 0.922942 -14.32 69.61)"/><circle cx="112.69" cy="70.58" r="9.7" stroke="#4D4D4D" stroke-width="3" stroke-miterlimit="10" fill="none" transform="matrix(0.228861 -0.973459 0.973459 0.228861 18.19 164.13)"/><circle cx="31.48" cy="70.58" r="9.7" stroke="#4D4D4D" stroke-width="3" stroke-miterlimit="10" fill="none" transform="matrix(0.228861 -0.973459 0.973459 0.228861 -44.43 85.08)"/><path d="M59.71 41.87 63.96 41.87 70.09 23.89 65.85 23.89 59.71 41.87Z" fill="#D83043"/><path d="M70.09 41.87 74.34 41.87 80.47 23.89 76.23 23.89 70.09 41.87Z" fill="#D83043"/><path d="M80.47 41.87 84.72 41.87 90.85 23.89 86.61 23.89 80.47 41.87Z" fill="#D83043"/><path d="M190.8 48.21 186.2 51.9C185.77 52.24 185.52 52.76 185.52 53.31 185.52 54.31 186.33 55.12 187.33 55.12L192.29 55.12" stroke="#4D4D4D" stroke-width="3" stroke-miterlimit="10" fill="none"/></svg>