<svg viewBox="0 0 33.92 10.9" xmlns="http://www.w3.org/2000/svg" xmlns:xlink="http://www.w3.org/1999/xlink" id="Isolation_Mode" overflow="hidden"><defs></defs><path d="M1.34 9.59 32.59 9.59C32.25 4.97 28.39 1.31 23.68 1.31 19.97 1.31 16.7 3.54 15.36 7L14.84 8.33 14.17 7.06C12.98 4.81 10.67 3.41 8.14 3.41 4.6 3.41 1.68 6.12 1.35 9.58M33.92 10.9 0 10.9 0 10.24C0 5.76 3.65 2.11 8.13 2.11 10.73 2.11 13.13 3.34 14.65 5.39 16.42 2.08 19.84 0 23.67 0 29.32 0 33.91 4.59 33.91 10.24L33.91 10.9Z" fill="#A7A9AC"/></svg>