<svg viewBox="0 0 710.79 628.09" xmlns="http://www.w3.org/2000/svg" xmlns:xlink="http://www.w3.org/1999/xlink" id="Layer_1" overflow="hidden"><defs></defs><path d="M148.77 412.54 452.35 412.54 452.35 628.09" stroke="#4D4D4D" stroke-width="3" stroke-miterlimit="10" fill="none"/><path d="M18.99 628.09 18.99 291.48 148.77 291.48 148.77 628.09" stroke="#4D4D4D" stroke-width="3" stroke-miterlimit="10" fill="none"/><path d="M153.29 291.48 266.7 291.48 266.7 397.02" stroke="#4D4D4D" stroke-width="3" stroke-miterlimit="10" fill="none"/><path d="M452.35 412.54 573.66 412.54 573.66 628.09" stroke="#4D4D4D" stroke-width="3" stroke-miterlimit="10" fill="none"/><path d="M9.12 291.48 1.5 291.48 1.5 275.14 280.81 275.14 280.81 291.48 273.19 291.48" stroke="#4D4D4D" stroke-width="3" stroke-miterlimit="10" fill="none"/><path d="M162.31 397.02 584.67 397.02 584.67 412.54 578.74 412.54" stroke="#4D4D4D" stroke-width="3" stroke-miterlimit="10" fill="none"/><rect x="44.01" y="327.01" width="11.51" height="11.51" fill="#364878"/><rect x="109.68" y="327.01" width="11.51" height="11.51" fill="#364878"/><rect x="44.01" y="423.43" width="11.51" height="11.51" fill="#364878"/><rect x="109.68" y="423.43" width="11.51" height="11.51" fill="#364878"/><rect x="44.01" y="519.85" width="11.51" height="11.51" fill="#364878"/><rect x="109.68" y="519.85" width="11.51" height="11.51" fill="#364878"/><rect x="44.01" y="471.64" width="11.51" height="11.51" fill="#364878"/><rect x="109.68" y="471.64" width="11.51" height="11.51" fill="#364878"/><rect x="44.01" y="568.06" width="11.51" height="11.51" fill="#364878"/><rect x="109.68" y="568.06" width="11.51" height="11.51" fill="#364878"/><rect x="44.01" y="375.22" width="11.51" height="11.51" fill="#364878"/><rect x="109.68" y="375.22" width="11.51" height="11.51" fill="#364878"/><rect x="172.28" y="327.8" width="76.72" height="1.94" fill="#364878"/><rect x="172.28" y="364.82" width="76.72" height="1.94" fill="#364878"/><path d="M318.35 628.09 318.35 575.82 266.09 575.82 266.09 628.09" stroke="#4D4D4D" stroke-width="3" stroke-miterlimit="10" fill="none"/><path d="M182.5 450.09 168.66 450.09 168.66 436.25 182.5 436.25 182.5 450.09ZM170.6 448.15 180.56 448.15 180.56 438.19 170.6 438.19 170.6 448.15Z" fill="#D83043"/><path d="M232.38 450.09 218.54 450.09 218.54 436.25 232.38 436.25 232.38 450.09ZM220.48 448.15 230.44 448.15 230.44 438.19 220.48 438.19 220.48 448.15Z" fill="#D83043"/><path d="M374.66 450.09 360.82 450.09 360.82 436.25 374.66 436.25 374.66 450.09ZM362.76 448.15 372.72 448.15 372.72 438.19 362.76 438.19 362.76 448.15Z" fill="#D83043"/><path d="M424.54 450.09 410.7 450.09 410.7 436.25 424.54 436.25 424.54 450.09ZM412.64 448.15 422.6 448.15 422.6 438.19 412.64 438.19 412.64 448.15Z" fill="#D83043"/><path d="M182.5 490.07 168.66 490.07 168.66 476.23 182.5 476.23 182.5 490.07ZM170.6 488.13 180.56 488.13 180.56 478.17 170.6 478.17 170.6 488.13Z" fill="#D83043"/><path d="M232.38 490.07 218.54 490.07 218.54 476.23 232.38 476.23 232.38 490.07ZM220.48 488.13 230.44 488.13 230.44 478.17 220.48 478.17 220.48 488.13Z" fill="#D83043"/><path d="M374.66 490.07 360.82 490.07 360.82 476.23 374.66 476.23 374.66 490.07ZM362.76 488.13 372.72 488.13 372.72 478.17 362.76 478.17 362.76 488.13Z" fill="#D83043"/><path d="M424.54 490.07 410.7 490.07 410.7 476.23 424.54 476.23 424.54 490.07ZM412.64 488.13 422.6 488.13 422.6 478.17 412.64 478.17 412.64 488.13Z" fill="#D83043"/><path d="M182.5 530.05 168.66 530.05 168.66 516.21 182.5 516.21 182.5 530.05ZM170.6 528.11 180.56 528.11 180.56 518.15 170.6 518.15 170.6 528.11Z" fill="#364878"/><path d="M424.54 530.05 410.7 530.05 410.7 516.21 424.54 516.21 424.54 530.05ZM412.64 528.11 422.6 528.11 422.6 518.15 412.64 518.15 412.64 528.11Z" fill="#364878"/><path d="M182.5 570.03 168.66 570.03 168.66 556.19 182.5 556.19 182.5 570.03ZM170.6 568.09 180.56 568.09 180.56 558.13 170.6 558.13 170.6 568.09Z" fill="#364878"/><path d="M232.38 570.03 218.54 570.03 218.54 556.19 232.38 556.19 232.38 570.03ZM220.48 568.09 230.44 568.09 230.44 558.13 220.48 558.13 220.48 568.09Z" fill="#364878"/><path d="M374.66 570.03 360.82 570.03 360.82 556.19 374.66 556.19 374.66 570.03ZM362.76 568.09 372.72 568.09 372.72 558.13 362.76 558.13 362.76 568.09Z" fill="#364878"/><path d="M424.54 570.03 410.7 570.03 410.7 556.19 424.54 556.19 424.54 570.03ZM412.64 568.09 422.6 568.09 422.6 558.13 412.64 558.13 412.64 568.09Z" fill="#364878"/><path d="M182.5 610.01 168.66 610.01 168.66 596.17 182.5 596.17 182.5 610.01ZM170.6 608.07 180.56 608.07 180.56 598.11 170.6 598.11 170.6 608.07Z" fill="#364878"/><path d="M232.38 610.01 218.54 610.01 218.54 596.17 232.38 596.17 232.38 610.01ZM220.48 608.07 230.44 608.07 230.44 598.11 220.48 598.11 220.48 608.07Z" fill="#364878"/><path d="M374.66 610.01 360.82 610.01 360.82 596.17 374.66 596.17 374.66 610.01ZM362.76 608.07 372.72 608.07 372.72 598.11 362.76 598.11 362.76 608.07Z" fill="#364878"/><path d="M424.54 610.01 410.7 610.01 410.7 596.17 424.54 596.17 424.54 610.01ZM412.64 608.07 422.6 608.07 422.6 598.11 412.64 598.11 412.64 608.07Z" fill="#364878"/><rect x="208.61" y="512.4" width="166.08" height="18.96" fill="#364878"/><line x1="305.52" y1="429.19" x2="305.52" y2="506.19" stroke="#4D4D4D" stroke-width="3" stroke-miterlimit="10" fill="none"/><line x1="277.78" y1="506.7" x2="277.78" y2="429.19" stroke="#4D4D4D" stroke-width="3" stroke-miterlimit="10" fill="none"/><line x1="277.78" y1="568.06" x2="277.78" y2="536.58" stroke="#4D4D4D" stroke-width="3" stroke-miterlimit="10" fill="none"/><line x1="305.52" y1="537.08" x2="305.52" y2="568.06" stroke="#4D4D4D" stroke-width="3" stroke-miterlimit="10" fill="none"/><path d="M559.56 153 621.05 153 620.79 143.1 559.82 143.1 559.56 153Z" fill="#364878"/><path d="M623.53 246.54 623.27 236.64 557.35 236.64 557.08 246.54 623.53 246.54Z" fill="#364878"/><path d="M562.3 49.57 562.04 59.47 618.58 59.47 618.31 49.57 562.3 49.57Z" fill="#364878"/><path d="M616.42 10.15 590.31 10.15 564.2 10.15 554.07 323.76 590.31 323.76 626.54 323.76 616.42 10.15Z" stroke="#4D4D4D" stroke-width="3" stroke-miterlimit="10" fill="none"/><path d="M620.92 10.15 620.92 1.5 561.1 1.5 561.1 10.15" stroke="#4D4D4D" stroke-width="3" stroke-miterlimit="10" fill="none"/><rect x="528.31" y="323.76" width="122.52" height="14.3" stroke="#4D4D4D" stroke-width="3" stroke-miterlimit="10" fill="none"/><line x1="519.3" y1="331.78" x2="280.81" y2="331.78" stroke="#D83043" stroke-width="3" stroke-miterlimit="10" fill="none"/><path d="M654.82 338.06 709.29 338.06 709.29 352.35 667.38 373.35 667.38 628.09" stroke="#4D4D4D" stroke-width="3" stroke-miterlimit="10" fill="none"/><path d="M470.82 331.15 470.82 239.95 396.9 239.95" stroke="#4D4D4D" stroke-width="3" stroke-miterlimit="10" fill="none"/><rect x="412.47" y="211.75" width="45.67" height="28.2" stroke="#4D4D4D" stroke-width="3" stroke-miterlimit="10" fill="none"/><line x1="332.22" y1="324.18" x2="332.22" y2="307.4" stroke="#D83043" stroke-width="3" stroke-miterlimit="10" fill="none"/><line x1="321.13" y1="307.3" x2="321.13" y2="324.18" stroke="#D83043" stroke-width="3" stroke-miterlimit="10" fill="none"/><path d="M332.22 299.28 332.22 278.06 321.13 278.06 321.13 299.48" stroke="#D83043" stroke-width="3" stroke-miterlimit="10" fill="none"/><rect x="317.76" y="254.97" rx="3.27" ry="3.27" width="17.82" height="23.09" stroke="#D83043" stroke-width="3" stroke-miterlimit="10" fill="none"/><rect x="317.33" y="299.72" width="18.68" height="6.73" stroke="#D83043" stroke-width="3" stroke-miterlimit="10" fill="none"/><rect x="317.33" y="324.41" width="18.68" height="6.73" stroke="#D83043" stroke-width="3" stroke-miterlimit="10" fill="none"/><line x1="367.33" y1="324.18" x2="367.33" y2="307.4" stroke="#D83043" stroke-width="3" stroke-miterlimit="10" fill="none"/><line x1="356.24" y1="307.3" x2="356.24" y2="324.18" stroke="#D83043" stroke-width="3" stroke-miterlimit="10" fill="none"/><path d="M367.33 299.28 367.33 278.06 356.24 278.06 356.24 299.48" stroke="#D83043" stroke-width="3" stroke-miterlimit="10" fill="none"/><rect x="352.87" y="254.97" rx="3.27" ry="3.27" width="17.82" height="23.09" stroke="#D83043" stroke-width="3" stroke-miterlimit="10" fill="none"/><rect x="352.45" y="299.72" width="18.68" height="6.73" stroke="#D83043" stroke-width="3" stroke-miterlimit="10" fill="none"/><rect x="352.45" y="324.41" width="18.68" height="6.73" stroke="#D83043" stroke-width="3" stroke-miterlimit="10" fill="none"/><line x1="402.44" y1="324.18" x2="402.44" y2="307.4" stroke="#D83043" stroke-width="3" stroke-miterlimit="10" fill="none"/><line x1="391.35" y1="307.3" x2="391.35" y2="324.18" stroke="#D83043" stroke-width="3" stroke-miterlimit="10" fill="none"/><path d="M402.44 299.28 402.44 278.06 391.35 278.06 391.35 299.48" stroke="#D83043" stroke-width="3" stroke-miterlimit="10" fill="none"/><rect x="387.99" y="254.97" rx="3.27" ry="3.27" width="17.82" height="23.09" stroke="#D83043" stroke-width="3" stroke-miterlimit="10" fill="none"/><rect x="387.56" y="299.72" width="18.68" height="6.73" stroke="#D83043" stroke-width="3" stroke-miterlimit="10" fill="none"/><rect x="387.56" y="324.41" width="18.68" height="6.73" stroke="#D83043" stroke-width="3" stroke-miterlimit="10" fill="none"/><path d="M550.03 130.82 475.53 130.82C459.76 130.82 446.93 143.65 446.93 159.42L446.93 211.75 425.52 211.75 425.52 159.42C425.52 131.84 447.96 109.4 475.54 109.4L550.04 109.4" stroke="#4D4D4D" stroke-width="3" stroke-miterlimit="10" fill="none"/><path d="M559.56 103.64 550.03 103.64 550.03 137.71 558.13 137.71" stroke="#4D4D4D" stroke-width="3" stroke-miterlimit="10" fill="none"/><line x1="611.33" y1="373.59" x2="651.13" y2="353.76" stroke="#364878" stroke-width="3" stroke-miterlimit="10" fill="none"/><line x1="569.03" y1="373.59" x2="608.83" y2="353.76" stroke="#364878" stroke-width="3" stroke-miterlimit="10" fill="none"/><line x1="522.73" y1="373.59" x2="562.53" y2="353.76" stroke="#364878" stroke-width="3" stroke-miterlimit="10" fill="none"/><line x1="477.28" y1="373.04" x2="514.9" y2="354.3" stroke="#364878" stroke-width="3" stroke-miterlimit="10" fill="none"/><line x1="433.51" y1="373.04" x2="471.13" y2="354.3" stroke="#364878" stroke-width="3" stroke-miterlimit="10" fill="none"/><line x1="389.74" y1="373.04" x2="427.36" y2="354.3" stroke="#364878" stroke-width="3" stroke-miterlimit="10" fill="none"/><line x1="345.98" y1="373.04" x2="383.6" y2="354.3" stroke="#364878" stroke-width="3" stroke-miterlimit="10" fill="none"/><line x1="302.21" y1="373.04" x2="339.83" y2="354.3" stroke="#364878" stroke-width="3" stroke-miterlimit="10" fill="none"/><line x1="665.09" y1="353.76" x2="309.61" y2="353.76" stroke="#364878" stroke-width="3" stroke-miterlimit="10" fill="none"/><line x1="640.37" y1="373.59" x2="277.78" y2="373.59" stroke="#364878" stroke-width="3" stroke-miterlimit="10" fill="none"/><path d="M112.18 251.34 126.98 70.77 119.85 47.71 119.85 22.38" stroke="#364878" stroke-width="5" stroke-miterlimit="10" fill="none"/><path d="M232.13 249.18 217.51 70.77 224.63 47.71 224.63 22.38" stroke="#364878" stroke-width="5" stroke-miterlimit="10" fill="none"/><path d="M282.68 249.18 249.22 60.01 172.24 60.01 95.27 60.01 61.44 251.34" stroke="#4D4D4D" stroke-width="3" stroke-miterlimit="10" fill="none"/><path d="M95.27 60.01 85.84 47.71 172.24 47.71" stroke="#4D4D4D" stroke-width="3" stroke-linejoin="round" fill="none"/><path d="M85.84 47.71 85.84 22.38 172.24 22.38" stroke="#4D4D4D" stroke-width="3" stroke-miterlimit="10" fill="none"/><path d="M249.22 60.01 258.64 47.71 172.24 47.71" stroke="#4D4D4D" stroke-width="3" stroke-linejoin="round" fill="none"/><path d="M258.64 47.71 258.64 22.38 172.24 22.38" stroke="#4D4D4D" stroke-width="3" stroke-miterlimit="10" fill="none"/><path d="M355.58 249.18 369.79 69.64 362.66 46.57 362.66 21.25" stroke="#364878" stroke-width="5" stroke-miterlimit="10" fill="none"/><path d="M463.01 103.64 460.32 69.64 467.44 46.57 467.44 21.25" stroke="#364878" stroke-width="5" stroke-miterlimit="10" fill="none"/><line x1="473.3" y1="233.7" x2="466.13" y2="143.15" stroke="#364878" stroke-width="5" stroke-miterlimit="10" fill="none"/><path d="M498.38 98.82 492.03 58.88 415.05 58.88 338.08 58.88 305.52 249.18" stroke="#4D4D4D" stroke-width="3" stroke-miterlimit="10" fill="none"/><line x1="523.22" y1="254.97" x2="505.1" y2="141.06" stroke="#4D4D4D" stroke-width="3" stroke-miterlimit="10" fill="none"/><path d="M338.08 58.88 328.65 46.57 415.05 46.57" stroke="#4D4D4D" stroke-width="3" stroke-linejoin="round" fill="none"/><path d="M328.65 46.57 328.65 21.25 415.05 21.25" stroke="#4D4D4D" stroke-width="3" stroke-miterlimit="10" fill="none"/><path d="M492.03 58.88 501.45 46.57 415.05 46.57" stroke="#4D4D4D" stroke-width="3" stroke-linejoin="round" fill="none"/><path d="M501.45 46.57 501.45 21.25 415.05 21.25" stroke="#4D4D4D" stroke-width="3" stroke-miterlimit="10" fill="none"/><path d="M308.63 257.3 41 257.3 41 266.52" stroke="#364878" stroke-width="3" stroke-miterlimit="10" fill="none"/><line x1="550.03" y1="257.3" x2="479.54" y2="257.3" stroke="#364878" stroke-width="3" stroke-miterlimit="10" fill="none"/></svg>