<svg viewBox="0 0 158.53 108.38" xmlns="http://www.w3.org/2000/svg" xmlns:xlink="http://www.w3.org/1999/xlink" id="Layer_1" overflow="hidden"><defs></defs><path d="M126.79 39.54 115.14 39.54 115.14 19.05 126.79 19.05 126.79 39.54ZM118.64 36.04 123.29 36.04 123.29 22.55 118.64 22.55 118.64 36.04Z" fill="#4D4D4D"/><path d="M153.47 74.46 150.3 72.98C150.43 72.69 150.5 72.38 150.5 72.06L150.5 65.05C150.5 63.84 149.52 62.86 148.31 62.86L142.51 62.86 142.51 44.92C142.51 41.95 140.1 39.54 137.13 39.54L106.72 39.54 93.23 27.75 89.13 31.85 92.39 35.02 89.53 56.6 77.27 56.6 76.83 40.56 60.1 40.01C56.79 39.91 54.04 37.46 53.55 34.18L50.63 14.61C47.98 15.19 45.82 17.29 45.26 20.03L41.22 39.57 37.79 38.86 41.83 19.32C42.83 14.47 47.16 10.95 52.11 10.95L53.62 10.95 57.01 33.67C57.25 35.27 58.59 36.46 60.21 36.51L78.39 37.11 80.23 37.11C80.23 37.11 80.67 53.1 80.67 53.1L86.46 53.1 88.69 36.3 84.14 31.88 93.07 22.95 108.04 36.03 137.13 36.03C142.03 36.03 146.01 40.01 146.01 44.91L146.01 59.35 148.31 59.35C151.45 59.35 154 61.9 154 65.04L154 72.05C154 72.89 153.82 73.69 153.47 74.45Z" fill="#4D4D4D"/><rect x="70.26" y="89.77" width="37.9" height="3.5" fill="#4D4D4D" transform="matrix(0.999984 -0.00558502 0.00558502 0.999984 -0.51 0.5)"/><path d="M117.65 93.16 106.41 93.16 106.41 91.41C106.41 76.6 112.8 60.13 130.72 58.31 135.44 57.83 138.91 58.14 142.26 59.36L144.26 59.36 144.26 62.86 141.62 62.86 141.32 62.75C138.42 61.65 135.35 61.36 131.06 61.8 112.81 63.65 110.26 82.69 109.94 89.66L117.64 89.66 117.64 93.16Z" fill="#4D4D4D"/><path d="M136.91 108.38C124.99 108.38 115.29 98.68 115.29 86.76 115.29 74.84 124.99 65.14 136.91 65.14 148.83 65.14 158.53 74.84 158.53 86.76 158.53 98.68 148.83 108.38 136.91 108.38ZM136.91 68.64C126.92 68.64 118.79 76.77 118.79 86.76 118.79 96.75 126.92 104.88 136.91 104.88 146.9 104.88 155.03 96.75 155.03 86.76 155.03 76.77 146.9 68.64 136.91 68.64Z" fill="#4D4D4D"/><path d="M136.91 98.44C130.47 98.44 125.22 93.2 125.22 86.76 125.22 80.32 130.46 75.07 136.91 75.07 143.36 75.07 148.59 80.31 148.59 86.76 148.59 93.21 143.35 98.44 136.91 98.44ZM136.91 78.57C132.4 78.57 128.72 82.24 128.72 86.76 128.72 91.28 132.39 94.94 136.91 94.94 141.43 94.94 145.09 91.27 145.09 86.76 145.09 82.25 141.42 78.57 136.91 78.57Z" fill="#D83043"/><path d="M136.91 91.92C134.06 91.92 131.74 89.6 131.74 86.76 131.74 83.92 134.06 81.59 136.91 81.59 139.76 81.59 142.07 83.91 142.07 86.76 142.07 89.61 139.75 91.92 136.91 91.92ZM136.91 85.09C135.99 85.09 135.24 85.84 135.24 86.76 135.24 87.68 135.99 88.42 136.91 88.42 137.83 88.42 138.57 87.67 138.57 86.76 138.57 85.85 137.82 85.09 136.91 85.09Z" fill="#D83043"/><path d="M71.67 93.38 56.09 93.38 56.09 89.88 68.83 89.88C69.38 86.84 69.57 83.68 69.71 80.67 70.16 71.39 68.53 63.27 64.87 56.55 59.49 46.67 48.92 40.54 37.28 40.54L14.88 40.54C13.13 40.54 11.72 41.96 11.72 43.71L11.72 57.19 8.22 57.19 8.22 43.71C8.22 40.04 11.21 37.04 14.88 37.04L37.28 37.04C50.2 37.04 61.96 43.87 67.95 54.88 71.92 62.17 73.69 70.91 73.21 80.84 73.04 84.46 72.8 88.3 71.97 92.01L71.67 93.38Z" fill="#4D4D4D"/><path d="M30.8 108.18C13.82 108.18 0 94.36 0 77.38 0 60.4 13.82 46.58 30.8 46.58 47.78 46.58 61.6 60.4 61.6 77.38 61.6 94.36 47.78 108.18 30.8 108.18ZM30.8 50.08C15.75 50.08 3.5 62.33 3.5 77.38 3.5 92.43 15.75 104.68 30.8 104.68 45.85 104.68 58.1 92.43 58.1 77.38 58.1 62.33 45.85 50.08 30.8 50.08Z" fill="#4D4D4D"/><path d="M30.8 95.11C21.02 95.11 13.07 87.16 13.07 77.38 13.07 67.6 21.02 59.65 30.8 59.65 40.58 59.65 48.53 67.6 48.53 77.38 48.53 87.16 40.58 95.11 30.8 95.11ZM30.8 63.15C22.96 63.15 16.57 69.53 16.57 77.38 16.57 85.23 22.95 91.61 30.8 91.61 38.65 91.61 45.03 85.23 45.03 77.38 45.03 69.53 38.65 63.15 30.8 63.15Z" fill="#D83043"/><path d="M30.8 86.39C25.83 86.39 21.79 82.35 21.79 77.38 21.79 72.41 25.83 68.37 30.8 68.37 35.77 68.37 39.81 72.41 39.81 77.38 39.81 82.35 35.77 86.39 30.8 86.39ZM30.8 71.87C27.76 71.87 25.29 74.34 25.29 77.38 25.29 80.42 27.76 82.89 30.8 82.89 33.84 82.89 36.31 80.42 36.31 77.38 36.31 74.34 33.84 71.87 30.8 71.87Z" fill="#D83043"/><path d="M122.71 20.81 119.21 20.81 119.21 5.91 125.81 0 128.14 2.61 122.71 7.47 122.71 20.81Z" fill="#4D4D4D"/><rect x="84.02" y="19.47" width="3.5" height="11.04" fill="#4D4D4D" transform="matrix(0.623334 -0.781956 0.781956 0.623334 12.76 76.48)"/><rect x="76.4" y="19.98" width="10.55" height="3.5" fill="#4D4D4D" transform="matrix(0.658033 -0.752989 0.752989 0.658033 11.56 68.93)"/><rect x="81.45" y="73.72" width="3.5" height="8.52" fill="#364878"/><rect x="88.54" y="73.72" width="3.5" height="8.52" fill="#364878"/><rect x="95.63" y="73.72" width="3.5" height="8.52" fill="#364878"/></svg>