<svg width="24" height="24" viewBox="0 0 24 24" xmlns="http://www.w3.org/2000/svg" xmlns:xlink="http://www.w3.org/1999/xlink" overflow="hidden"><style>
.MsftOfcThm_Background1_lumMod_75_Stroke_v2 {
 stroke:#BFBFBF; 
}
</style>
<path d="M6.65722 18.7714 6.65722 15.7047C6.6572 14.9246 7.29312 14.2908 8.08101 14.2856L10.9671 14.2856C11.7587 14.2856 12.4005 14.9209 12.4005 15.7047L12.4005 15.7047 12.4005 18.7809C12.4003 19.4432 12.9343 19.9845 13.603 20L15.5271 20C17.4451 20 19 18.4607 19 16.5618L19 16.5618 19 7.83784C18.9898 7.09083 18.6355 6.38935 18.038 5.93303L11.4577 0.685301C10.3049-0.228434 8.6662-0.228434 7.51342 0.685301L0.962025 5.94256C0.362259 6.39702 0.00738669 7.09967 0 7.84736L0 16.5618C0 18.4607 1.55488 20 3.47291 20L5.39696 20C6.08235 20 6.63797 19.4499 6.63797 18.7714L6.63797 18.7714" class="MsftOfcThm_Background1_lumMod_75_Stroke_v2" stroke="#BFBFBF" stroke-width="1.5" stroke-linecap="round" stroke-linejoin="round" fill="none" fill-rule="evenodd" transform="translate(2.5 2)"/></svg>