<svg viewBox="0 0 726.82 365.25" xmlns="http://www.w3.org/2000/svg" xmlns:xlink="http://www.w3.org/1999/xlink" id="Layer_1" overflow="hidden"><defs></defs><path d="M465.09 182.83 461.59 182.83 461.59 76.6C461.59 75.08 460.35 73.84 458.83 73.84L372.86 73.84 372.86 70.34 458.83 70.34C462.28 70.34 465.09 73.15 465.09 76.6L465.09 182.83Z" fill="#4D4D4D"/><path d="M473.32 180.83 469.82 180.83 469.82 76.6C469.82 70.54 464.89 65.61 458.83 65.61L372.86 65.61 372.86 62.11 458.83 62.11C466.82 62.11 473.32 68.61 473.32 76.6L473.32 180.83Z" fill="#4D4D4D"/><rect x="131.32" y="322.54" width="3.5" height="40.5" fill="#4D4D4D"/><rect x="131.32" y="269.13" width="3.5" height="44.97" fill="#4D4D4D"/><rect x="131.32" y="223.17" width="3.5" height="40.11" fill="#4D4D4D"/><rect x="131.32" y="177.8" width="3.5" height="37.22" fill="#4D4D4D"/><rect x="131.32" y="132.43" width="3.5" height="37.22" fill="#4D4D4D"/><rect x="131.32" y="87.06" width="3.5" height="36.77" fill="#4D4D4D"/><path d="M368.84 75.48 365.14 75.48 365.14 60.48 368.84 60.48C372.98 60.48 376.34 63.85 376.34 67.98 376.34 72.11 372.97 75.48 368.84 75.48ZM368.63 71.98 368.83 71.98C371.04 71.98 372.83 70.19 372.83 67.98 372.83 65.77 371.04 63.98 368.83 63.98L368.63 63.98 368.63 71.98Z" fill="#4D4D4D"/><rect x="237" y="87.06" width="3.5" height="37.22" fill="#4D4D4D"/><rect x="237" y="132.43" width="3.5" height="37.22" fill="#4D4D4D"/><rect x="237" y="177.8" width="3.5" height="37.22" fill="#4D4D4D"/><rect x="237" y="223.17" width="3.5" height="39.45" fill="#4D4D4D"/><rect x="237" y="270.43" width="3.5" height="42.79" fill="#4D4D4D"/><rect x="237" y="322.69" width="3.5" height="41.24" fill="#4D4D4D"/><path d="M240.5 78.91 237 78.91 237 54.6C237 53 236.92 51.39 236.78 49.82 235.69 38.02 230.45 26.88 222.04 18.45 212.4 8.81 199.57 3.49 185.92 3.49L183.38 3.57C158.17 4.78 137.37 24.66 135.03 49.82 134.88 51.39 134.81 52.99 134.81 54.6L134.81 78.91 131.31 78.91 131.31 54.6C131.31 52.88 131.39 51.16 131.55 49.49 134.05 22.62 156.27 1.37 183.25 0.08L185.87 0 185.87 0C200.51 0 214.21 5.68 224.52 15.98 233.51 24.99 239.1 36.89 240.27 49.49 240.43 51.17 240.51 52.89 240.51 54.6L240.51 78.91Z" fill="#4D4D4D"/><path d="M238.75 88.81 132.35 88.81C129.14 88.81 126.53 86.2 126.53 82.99 126.53 79.78 129.14 77.17 132.35 77.17L238.75 77.17C241.96 77.17 244.57 79.78 244.57 82.99 244.57 86.2 241.96 88.81 238.75 88.81ZM132.35 80.66C131.07 80.66 130.03 81.7 130.03 82.98 130.03 84.26 131.07 85.3 132.35 85.3L238.75 85.3C240.03 85.3 241.07 84.26 241.07 82.98 241.07 81.7 240.03 80.66 238.75 80.66L132.35 80.66Z" fill="#D83043"/><path d="M238.75 134.18 132.35 134.18C129.14 134.18 126.53 131.57 126.53 128.36 126.53 125.15 129.14 122.54 132.35 122.54L238.75 122.54C241.96 122.54 244.57 125.15 244.57 128.36 244.57 131.57 241.96 134.18 238.75 134.18ZM132.35 126.03C131.07 126.03 130.03 127.07 130.03 128.35 130.03 129.63 131.07 130.67 132.35 130.67L238.75 130.67C240.03 130.67 241.07 129.63 241.07 128.35 241.07 127.07 240.03 126.03 238.75 126.03L132.35 126.03Z" fill="#364878"/><path d="M238.75 179.55 132.35 179.55C129.14 179.55 126.53 176.94 126.53 173.73 126.53 170.52 129.14 167.91 132.35 167.91L238.75 167.91C241.96 167.91 244.57 170.52 244.57 173.73 244.57 176.94 241.96 179.55 238.75 179.55ZM132.35 171.4C131.07 171.4 130.03 172.44 130.03 173.72 130.03 175 131.07 176.04 132.35 176.04L238.75 176.04C240.03 176.04 241.07 175 241.07 173.72 241.07 172.44 240.03 171.4 238.75 171.4L132.35 171.4Z" fill="#D83043"/><path d="M238.75 224.92 132.35 224.92C129.14 224.92 126.53 222.31 126.53 219.1 126.53 215.89 129.14 213.28 132.35 213.28L238.75 213.28C241.96 213.28 244.57 215.89 244.57 219.1 244.57 222.31 241.96 224.92 238.75 224.92ZM132.35 216.78C131.07 216.78 130.03 217.82 130.03 219.1 130.03 220.38 131.07 221.42 132.35 221.42L238.75 221.42C240.03 221.42 241.07 220.38 241.07 219.1 241.07 217.82 240.03 216.78 238.75 216.78L132.35 216.78Z" fill="#364878"/><path d="M238.75 272.19 132.35 272.19C129.14 272.19 126.53 269.58 126.53 266.37 126.53 263.16 129.14 260.55 132.35 260.55L238.75 260.55C241.96 260.55 244.57 263.16 244.57 266.37 244.57 269.58 241.96 272.19 238.75 272.19ZM132.35 264.04C131.07 264.04 130.03 265.08 130.03 266.36 130.03 267.64 131.07 268.68 132.35 268.68L238.75 268.68C240.03 268.68 241.07 267.64 241.07 266.36 241.07 265.08 240.03 264.04 238.75 264.04L132.35 264.04Z" fill="#D83043"/><path d="M238.75 324 132.35 324C129.14 324 126.53 321.39 126.53 318.18 126.53 314.97 129.14 312.36 132.35 312.36L238.75 312.36C241.96 312.36 244.57 314.97 244.57 318.18 244.57 321.39 241.96 324 238.75 324ZM132.35 315.85C131.07 315.85 130.03 316.89 130.03 318.17 130.03 319.45 131.07 320.49 132.35 320.49L238.75 320.49C240.03 320.49 241.07 319.45 241.07 318.17 241.07 316.89 240.03 315.85 238.75 315.85L132.35 315.85Z" fill="#364878"/><rect x="133.77" y="47.83" width="105.23" height="3.5" fill="#4D4D4D"/><rect x="259.32" y="322.54" width="3.5" height="40.5" fill="#4D4D4D"/><rect x="259.32" y="269.13" width="3.5" height="44.97" fill="#4D4D4D"/><rect x="259.32" y="223.17" width="3.5" height="40.11" fill="#4D4D4D"/><rect x="259.32" y="177.8" width="3.5" height="37.22" fill="#4D4D4D"/><rect x="259.32" y="132.43" width="3.5" height="37.22" fill="#4D4D4D"/><rect x="259.32" y="87.06" width="3.5" height="36.77" fill="#4D4D4D"/><rect x="365" y="87.06" width="3.5" height="37.22" fill="#4D4D4D"/><rect x="365" y="132.43" width="3.5" height="37.22" fill="#4D4D4D"/><rect x="365" y="177.8" width="3.5" height="37.22" fill="#4D4D4D"/><rect x="365" y="223.17" width="3.5" height="39.45" fill="#4D4D4D"/><rect x="365" y="270.43" width="3.5" height="42.79" fill="#4D4D4D"/><rect x="365" y="322.69" width="3.5" height="41.24" fill="#4D4D4D"/><path d="M368.5 78.91 365 78.91 365 54.6C365 53 364.92 51.39 364.78 49.82 363.69 38.02 358.45 26.88 350.04 18.45 340.4 8.81 327.57 3.49 313.92 3.49L311.38 3.57C286.17 4.78 265.37 24.66 263.03 49.82 262.88 51.39 262.81 52.99 262.81 54.6L262.81 78.91 259.31 78.91 259.31 54.6C259.31 52.88 259.39 51.16 259.55 49.49 262.04 22.61 284.27 1.37 311.24 0.07L313.86-0.01 313.86-0.01C328.5-0.01 342.2 5.67 352.51 15.97 361.5 24.98 367.09 36.88 368.26 49.48 368.42 51.16 368.5 52.88 368.5 54.59L368.5 78.9Z" fill="#4D4D4D"/><path d="M366.75 88.81 260.35 88.81C257.14 88.81 254.53 86.2 254.53 82.99 254.53 79.78 257.14 77.17 260.35 77.17L366.75 77.17C369.96 77.17 372.57 79.78 372.57 82.99 372.57 86.2 369.96 88.81 366.75 88.81ZM260.35 80.66C259.07 80.66 258.03 81.7 258.03 82.98 258.03 84.26 259.07 85.3 260.35 85.3L366.75 85.3C368.03 85.3 369.07 84.26 369.07 82.98 369.07 81.7 368.03 80.66 366.75 80.66L260.35 80.66Z" fill="#364878"/><path d="M366.75 134.18 260.35 134.18C257.14 134.18 254.53 131.57 254.53 128.36 254.53 125.15 257.14 122.54 260.35 122.54L366.75 122.54C369.96 122.54 372.57 125.15 372.57 128.36 372.57 131.57 369.96 134.18 366.75 134.18ZM260.35 126.03C259.07 126.03 258.03 127.07 258.03 128.35 258.03 129.63 259.07 130.67 260.35 130.67L366.75 130.67C368.03 130.67 369.07 129.63 369.07 128.35 369.07 127.07 368.03 126.03 366.75 126.03L260.35 126.03Z" fill="#D83043"/><path d="M366.75 179.55 260.35 179.55C257.14 179.55 254.53 176.94 254.53 173.73 254.53 170.52 257.14 167.91 260.35 167.91L366.75 167.91C369.96 167.91 372.57 170.52 372.57 173.73 372.57 176.94 369.96 179.55 366.75 179.55ZM260.35 171.4C259.07 171.4 258.03 172.44 258.03 173.72 258.03 175 259.07 176.04 260.35 176.04L366.75 176.04C368.03 176.04 369.07 175 369.07 173.72 369.07 172.44 368.03 171.4 366.75 171.4L260.35 171.4Z" fill="#364878"/><path d="M366.75 224.92 260.35 224.92C257.14 224.92 254.53 222.31 254.53 219.1 254.53 215.89 257.14 213.28 260.35 213.28L366.75 213.28C369.96 213.28 372.57 215.89 372.57 219.1 372.57 222.31 369.96 224.92 366.75 224.92ZM260.35 216.78C259.07 216.78 258.03 217.82 258.03 219.1 258.03 220.38 259.07 221.42 260.35 221.42L366.75 221.42C368.03 221.42 369.07 220.38 369.07 219.1 369.07 217.82 368.03 216.78 366.75 216.78L260.35 216.78Z" fill="#D83043"/><path d="M366.75 272.19 260.35 272.19C257.14 272.19 254.53 269.58 254.53 266.37 254.53 263.16 257.14 260.55 260.35 260.55L366.75 260.55C369.96 260.55 372.57 263.16 372.57 266.37 372.57 269.58 369.96 272.19 366.75 272.19ZM260.35 264.04C259.07 264.04 258.03 265.08 258.03 266.36 258.03 267.64 259.07 268.68 260.35 268.68L366.75 268.68C368.03 268.68 369.07 267.64 369.07 266.36 369.07 265.08 368.03 264.04 366.75 264.04L260.35 264.04Z" fill="#364878"/><path d="M366.75 324 260.35 324C257.14 324 254.53 321.39 254.53 318.18 254.53 314.97 257.14 312.36 260.35 312.36L366.75 312.36C369.96 312.36 372.57 314.97 372.57 318.18 372.57 321.39 369.96 324 366.75 324ZM260.35 315.85C259.07 315.85 258.03 316.89 258.03 318.17 258.03 319.45 259.07 320.49 260.35 320.49L366.75 320.49C368.03 320.49 369.07 319.45 369.07 318.17 369.07 316.89 368.03 315.85 366.75 315.85L260.35 315.85Z" fill="#D83043"/><rect x="261.77" y="47.83" width="105.23" height="3.5" fill="#4D4D4D"/><rect x="79.26" y="246.58" width="3.5" height="117.35" fill="#4D4D4D"/><rect x="75.45" y="286.51" width="37.3" height="3.5" fill="#4D4D4D" transform="matrix(0.701531 -0.712639 0.712639 0.701531 -177.34 153.1)"/><rect x="72.49" y="264.09" width="3.5" height="17.21" fill="#4D4D4D" transform="matrix(0.686199 -0.727414 0.727414 0.686199 -175.07 139.59)"/><path d="M65.39 304.38C54.93 304.38 45.66 298.32 41.43 288.84 41.25 288.84 41.06 288.85 40.87 288.85 28.06 288.85 17.64 278.43 17.64 265.62 17.64 264.43 17.74 263.21 17.94 261.98 7.3 258.43 0.01 248.42 0.01 237.09 0.01 222.52 8.48 216.66 14.09 212.78 14.88 212.23 15.65 211.7 16.33 211.19 14 205.82 14.01 201.09 14.02 195.22L14.02 194C14.02 168.02 26.74 154.84 51.81 154.84 58.22 154.84 62.48 155.6 67.54 157.72 71.63 154.01 77.72 149.97 84.86 149.97 91.03 149.97 96.96 152.14 101.69 156.1 105.21 154.07 109.19 153 113.27 153 122.42 153 130.75 158.4 134.49 166.75L131.29 168.18C128.11 161.08 121.04 156.5 113.27 156.5 109.43 156.5 105.69 157.62 102.47 159.73L101.32 160.48 100.32 159.55C96.09 155.63 90.6 153.47 84.87 153.47 78.38 153.47 72.72 157.59 69.12 161.05L68.27 161.86 67.19 161.38C62.08 159.11 58.2 158.34 51.81 158.34 28.74 158.34 17.52 170 17.52 194L17.52 195.22C17.51 201.56 17.5 205.75 20.06 210.93L20.67 212.15 19.63 213.04C18.6 213.92 17.37 214.77 16.08 215.66 10.48 219.54 3.51 224.36 3.51 237.1 3.51 247.39 10.46 256.43 20.42 259.08L22.06 259.52 21.68 261.17C21.33 262.68 21.15 264.19 21.15 265.63 21.15 276.51 30 285.36 40.88 285.36 41.41 285.36 41.92 285.32 42.44 285.28L43.73 285.18 44.2 286.39C47.64 295.2 55.96 300.89 65.4 300.89 70.38 300.89 75.12 299.29 79.12 296.26L79.9 295.67 80.81 296.02C86.06 298.05 91.57 299.08 97.21 299.08 109.95 299.08 123.19 292.68 131.79 283.26L134.37 285.62C125.11 295.76 110.93 302.58 97.2 302.58 91.45 302.58 85.82 301.58 80.44 299.62 76 302.74 70.82 304.39 65.39 304.39Z" fill="#4D4D4D"/><g><path d="M589.09 213.3 712.38 213.3 712.38 257.62" stroke="#4D4D4D" stroke-width="3" stroke-miterlimit="10" fill="none"/><path d="M555.29 363.75 555.29 213.3 570.88 213.3" stroke="#4D4D4D" stroke-width="3" stroke-miterlimit="10" fill="none"/><path d="M555.88 363.75 411.64 363.75 411.64 213.3 544.88 213.3" stroke="#4D4D4D" stroke-width="3" stroke-miterlimit="10" fill="none"/><path d="M589.09 188.41C602.32 183.52 618.52 179.5 636.03 179.5 680.62 179.5 716.77 205.6 716.77 205.6" stroke="#4D4D4D" stroke-width="3" stroke-miterlimit="10" fill="none"/><path d="M555.29 205.6C555.29 205.6 558.7 203.14 564.72 199.73" stroke="#4D4D4D" stroke-width="3" stroke-miterlimit="10" fill="none"/><line x1="589.09" y1="179.5" x2="636.88" y2="179.5" stroke="#4D4D4D" stroke-width="3" stroke-miterlimit="10" fill="none"/><path d="M410.76 205.6C410.76 205.6 446.91 179.5 491.5 179.5L570.89 179.5" stroke="#4D4D4D" stroke-width="3" stroke-miterlimit="10" fill="none"/><line x1="570.38" y1="205.6" x2="551.41" y2="205.6" stroke="#4D4D4D" stroke-width="3" stroke-miterlimit="10" fill="none"/><path d="M720.64 213.3 720.64 205.6 589.09 205.6" stroke="#4D4D4D" stroke-width="3" stroke-miterlimit="10" fill="none"/><path d="M404.38 213.3 404.38 205.6 551.41 205.6" stroke="#4D4D4D" stroke-width="3" stroke-miterlimit="10" fill="none"/><rect x="530.94" y="237.37" width="7.64" height="18.11" stroke="#4D4D4D" stroke-width="3" stroke-miterlimit="10" fill="none" transform="matrix(-1 -1.22465e-16 1.22465e-16 -1 1069.52 492.86)"/><rect x="495.65" y="237.37" width="7.64" height="18.11" stroke="#4D4D4D" stroke-width="3" stroke-miterlimit="10" fill="none" transform="matrix(-1 -1.22465e-16 1.22465e-16 -1 998.93 492.86)"/><rect x="460.36" y="237.37" width="7.64" height="18.11" stroke="#4D4D4D" stroke-width="3" stroke-miterlimit="10" fill="none" transform="matrix(-1 -1.22465e-16 1.22465e-16 -1 928.35 492.86)"/><rect x="425.06" y="237.37" width="7.64" height="18.11" stroke="#4D4D4D" stroke-width="3" stroke-miterlimit="10" fill="none" transform="matrix(-1 -1.22465e-16 1.22465e-16 -1 857.77 492.86)"/><rect x="530.64" y="301.54" width="7.64" height="18.11" stroke="#4D4D4D" stroke-width="3" stroke-miterlimit="10" fill="none" transform="matrix(-1 -1.22465e-16 1.22465e-16 -1 1068.92 621.2)"/><rect x="495.35" y="301.54" width="7.64" height="18.11" stroke="#4D4D4D" stroke-width="3" stroke-miterlimit="10" fill="none" transform="matrix(-1 -1.22465e-16 1.22465e-16 -1 998.34 621.2)"/><rect x="460.06" y="301.54" width="7.64" height="18.11" stroke="#4D4D4D" stroke-width="3" stroke-miterlimit="10" fill="none" transform="matrix(-1 -1.22465e-16 1.22465e-16 -1 927.76 621.2)"/><rect x="424.77" y="301.54" width="7.64" height="18.11" stroke="#4D4D4D" stroke-width="3" stroke-miterlimit="10" fill="none" transform="matrix(-1 -1.22465e-16 1.22465e-16 -1 857.17 621.2)"/><line x1="684.58" y1="363.75" x2="684.58" y2="291.24" stroke="#D83043" stroke-width="3" stroke-miterlimit="10" fill="none"/><path d="M586.54 363.93 586.54 291.24 594 291.24" stroke="#D83043" stroke-width="3" stroke-miterlimit="10" fill="none"/><rect x="603.12" y="291.24" width="73.65" height="11.83" stroke="#D83043" stroke-width="3" stroke-miterlimit="10" fill="none" transform="matrix(-1 -1.22465e-16 1.22465e-16 -1 1279.88 594.31)"/><path d="M721.76 363.03 721.76 280.64C721.76 262.15 706.72 247.11 688.23 247.11L601.71 247.11C590.24 247.11 580.9 237.78 580.9 226.31L580.9 171.67C580.9 171.67 571.37 171.67 571.37 171.67L571.37 226.31C571.37 243.04 584.98 256.64 601.7 256.64L688.22 256.64C701.45 256.64 712.22 267.41 712.22 280.64L712.22 363.03" stroke="#4D4D4D" stroke-width="3" stroke-miterlimit="10" fill="none"/><rect x="706.75" y="332.55" width="20.07" height="5.33" fill="#364878" transform="matrix(-1 -1.22465e-16 1.22465e-16 -1 1433.57 670.42)"/><rect x="706.75" y="281.05" width="20.07" height="5.33" fill="#364878" transform="matrix(-1 -1.22465e-16 1.22465e-16 -1 1433.57 567.43)"/><rect x="565.72" y="190.7" width="20.07" height="5.33" fill="#364878" transform="matrix(-1 -1.22465e-16 1.22465e-16 -1 1151.5 386.73)"/><rect x="658.73" y="249.82" width="20.07" height="5.33" fill="#364878" transform="matrix(6.12323e-17 1 -1 6.12323e-17 921.24 -416.28)"/><rect x="607.23" y="249.82" width="20.07" height="5.33" fill="#364878" transform="matrix(6.12323e-17 1 -1 6.12323e-17 869.75 -364.78)"/></g></svg>