<svg viewBox="0 0 276.92 244.84" xmlns="http://www.w3.org/2000/svg" xmlns:xlink="http://www.w3.org/1999/xlink" id="Isolation_Mode" overflow="hidden"><defs></defs><path d="M6.73 244.84C6.66 244.23 6.63 243.62 6.62 243.02 6.49 232.76 14.73 224.31 24.98 224.18 28.44 224.13 31.8 225.04 34.74 226.8 36.4 224.57 38.83 222.98 41.54 222.35 41.61 214.25 48.17 207.63 56.31 207.52 57.14 207.5 58 207.57 58.84 207.7 62.13 201.07 68.84 196.8 76.33 196.7 76.96 196.7 77.58 196.71 78.21 196.77 82.47 191.69 89.08 189.04 95.68 189.81 101.91 190.54 107.31 194.08 110.44 199.42 112.94 198.25 115.74 197.79 118.51 198.11 121.48 198.46 124.28 199.69 126.54 201.64 128.36 200.23 130.64 199.58 132.97 199.86 133.14 199.88 133.3 199.9 133.47 199.93 137.6 193.86 144.79 190.55 152.13 191.4 159.57 192.27 165.8 197.2 168.39 204.14 169.24 204.1 170.09 204.12 170.93 204.22 174.9 204.68 178.45 206.66 180.93 209.8 183.34 212.85 184.46 216.63 184.09 220.49 186.72 221.4 188.97 223.23 190.39 225.62 193.5 224.17 196.91 223.61 200.37 224.02 206.11 224.69 211.13 227.91 214.13 232.86 216.29 236.42 217.18 240.5 216.69 244.65L216.67 244.82 213.19 244.42 213.21 244.3C213.61 240.88 212.89 237.57 211.14 234.68 208.7 230.66 204.63 228.04 199.97 227.5 196.66 227.12 193.38 227.81 190.51 229.51L188.73 230.57 187.98 228.64C186.96 225.99 184.59 224.02 181.81 223.5L180.06 223.17 180.42 221.42C180.49 221.09 180.55 220.75 180.59 220.4 180.94 217.36 180.09 214.36 178.19 211.96 176.29 209.56 173.57 208.04 170.53 207.69 169.51 207.57 168.47 207.59 167.45 207.75L165.93 207.98 165.5 206.51C163.66 200.2 158.26 195.63 151.73 194.87 145.32 194.12 139.06 197.24 135.78 202.82L135.05 204.06 133.7 203.59C133.33 203.46 132.95 203.38 132.57 203.33 130.89 203.13 129.27 203.72 128.1 204.94L127.82 205.24 127.43 205.38C127.29 205.43 127.16 205.48 127.02 205.53L125.92 205.96 125.11 205.1C123.26 203.14 120.78 201.9 118.12 201.59 115.49 201.29 112.91 201.87 110.67 203.29L108.99 204.35 108.15 202.56C105.73 197.41 100.92 193.95 95.28 193.29 89.56 192.62 83.86 195.07 80.38 199.67L79.76 200.48 78.75 200.35C77.96 200.25 77.16 200.19 76.38 200.21 69.81 200.29 63.96 204.28 61.49 210.37L60.91 211.79 59.42 211.4C58.42 211.14 57.38 211.01 56.36 211.02 50.04 211.1 44.97 216.31 45.05 222.62 45.05 222.97 45.08 223.31 45.11 223.65L45.29 225.43 43.51 225.57C40.69 225.8 38.13 227.51 36.84 230.04L35.9 231.89 34.24 230.65C31.57 228.66 28.38 227.66 25.04 227.67 16.71 227.78 10.03 234.64 10.13 242.96 10.13 243.45 10.17 243.95 10.22 244.44L6.74 244.82Z" fill="#4D4D4D"/><rect x="201.61" y="192.3" width="3.5" height="33.22" fill="#4D4D4D"/><rect x="273.42" y="192.3" width="3.5" height="50.89" fill="#4D4D4D"/><rect x="164.81" y="199.28" width="110.35" height="3.5" fill="#4D4D4D"/><rect x="182.24" y="215.33" width="92.93" height="3.5" fill="#4D4D4D"/><rect x="212.62" y="231.38" width="62.55" height="3.5" fill="#4D4D4D"/><rect x="68.98" y="84.84" width="3.5" height="114.6" fill="#4D4D4D"/><rect x="65.88" y="118.83" width="32.46" height="3.5" fill="#4D4D4D" transform="matrix(0.701531 -0.712639 0.712639 0.701531 -61.42 94.51)"/><rect x="63.09" y="99.55" width="3.5" height="14.98" fill="#4D4D4D" transform="matrix(0.686199 -0.727414 0.727414 0.686199 -57.52 80.75)"/><path d="M57.13 134.84C47.99 134.84 39.88 129.57 36.13 121.32 36.02 121.32 35.9 121.32 35.79 121.32 24.52 121.32 15.34 112.15 15.34 100.87 15.34 99.88 15.42 98.87 15.57 97.86 6.32 94.68-0.01 85.94-0.01 76.05-0.01 63.25 7.42 58.11 12.34 54.71 12.97 54.27 13.59 53.85 14.14 53.44 12.17 48.8 12.18 44.7 12.18 39.62L12.18 38.56C12.18 16.12 23.63 4.26 45.29 4.26 50.85 4.26 54.56 4.92 58.93 6.73 62.52 3.5 67.83 0.02 74.05 0.02 79.42 0.02 84.58 1.89 88.72 5.31 91.78 3.57 95.23 2.66 98.77 2.66 110.04 2.66 119.22 11.83 119.22 23.11 119.22 25.32 118.86 27.49 118.16 29.58 130.57 29.95 140.56 40.16 140.56 52.66 140.56 58.72 138.14 64.55 133.88 68.87 135.61 72.17 136.52 75.83 136.52 79.54 136.52 86.99 132.95 93.93 126.92 98.27 123.17 118.6 105.57 133.28 84.8 133.28 79.81 133.28 74.92 132.42 70.25 130.73 66.37 133.43 61.85 134.85 57.12 134.85ZM38.42 117.65 38.89 118.86C41.85 126.44 49.01 131.34 57.12 131.34 61.4 131.34 65.48 129.96 68.92 127.36L69.7 126.77 70.61 127.12C75.15 128.88 79.93 129.77 84.8 129.77 104.11 129.77 120.42 115.97 123.6 96.95L123.72 96.21 124.34 95.79C129.77 92.14 133.01 86.06 133.01 79.53 133.01 75.99 132.03 72.5 130.18 69.44L129.43 68.2 130.51 67.23C134.67 63.51 137.05 58.2 137.05 52.65 137.05 41.85 128.26 33.06 117.46 33.06 117.23 33.06 117 33.08 116.78 33.09L115.47 33.16 114.91 32.41C114.83 32.31 114.75 32.21 114.67 32.1L113.79 30.97 114.22 30.02C115.21 27.81 115.71 25.48 115.71 23.09 115.71 13.75 108.11 6.14 98.76 6.14 95.46 6.14 92.25 7.1 89.49 8.91L88.34 9.66 87.34 8.73C83.7 5.35 78.98 3.5 74.05 3.5 68.48 3.5 63.61 7.05 60.5 10.03L59.65 10.84 58.57 10.36C54.16 8.4 50.8 7.73 45.28 7.73 25.35 7.73 15.67 17.81 15.67 38.53L15.67 39.6C15.67 45.09 15.65 48.71 17.86 53.16L18.47 54.38 17.43 55.27C16.52 56.04 15.45 56.78 14.32 57.57 9.49 60.91 3.48 65.07 3.48 76.04 3.48 84.89 9.46 92.67 18.02 94.95L19.66 95.39 19.28 97.04C18.98 98.34 18.83 99.62 18.83 100.87 18.83 110.21 26.43 117.82 35.78 117.82 36.23 117.82 36.67 117.79 37.12 117.75L38.41 117.65Z" fill="#4D4D4D"/></svg>