<svg viewBox="0 0 142.42 109.46" xmlns="http://www.w3.org/2000/svg" xmlns:xlink="http://www.w3.org/1999/xlink" id="Isolation_Mode" overflow="hidden"><defs></defs><path d="M136.44 37.3C134.09 37.3 131.04 36.75 127.28 35.66L128.25 32.3C135.72 34.46 138.64 33.84 138.89 33.19 138.92 33.12 138.92 33.07 138.92 33.06 138.51 31.76 131.48 30.2 123.05 30.16L123.07 26.66C126.77 26.68 139.06 27.05 141.79 31.05 142.48 32.06 142.61 33.27 142.16 34.45 141.43 36.35 139.54 37.29 136.45 37.29Z" fill="#4D4D4D"/><path d="M102.93 109.46 89.41 109.46 90.7 106.92C92.48 103.41 94.64 102.03 95.68 101.54 97.02 94.51 97.55 82.56 88.73 73.81L91.19 71.33C101.69 81.75 100.5 95.92 98.86 103.44L98.49 105.14 96.96 104.82C96.66 104.99 96.14 105.33 95.54 105.98L99.55 105.98C101.24 100.95 106.22 85.81 106.28 85.65L109.6 86.74C109.55 86.9 104.6 101.94 102.89 107.03 102.91 107.27 102.93 107.49 102.93 107.72L102.93 109.47Z" fill="#4D4D4D"/><path d="M72.56 109.46 59.04 109.46 60.33 106.92C61.49 104.64 62.81 103.26 63.86 102.45L58.49 82.57 59.44 82.32 58.39 81.98 60.33 75.94 67.94 104.13 66.69 104.78C66.39 104.94 65.84 105.28 65.19 105.98L68.97 105.98 68.52 81.38 72.02 81.32 72.48 106.67C72.54 107.05 72.57 107.39 72.57 107.74L72.57 109.49Z" fill="#4D4D4D"/><path d="M61.14 84.83 57.81 83.74 58.38 81.96 61.72 83.01C61.53 83.61 61.34 84.22 61.14 84.82Z" fill="#4D4D4D"/><path d="M126.74 109.46 113.22 109.46 114.51 106.92C115.93 104.13 117.6 102.68 118.73 101.96 118.75 101.38 118.78 100.63 118.82 99.75 118.95 96.48 119.28 88.46 119.19 85.65 113.39 83.98 108.77 80.68 105.34 77.93 100.52 74.06 95.95 72.48 91.72 73.26 90.84 73.42 89.96 73.73 89.02 74.06 87.82 74.48 86.58 74.91 85.21 75.09 81.17 75.6 77.39 74.79 74.26 72.73L74.16 72.67C72.55 71.61 71.98 71.28 70.72 71.53 64.02 72.8 59.14 73.38 52.58 69.95 51.69 69.48 50.72 69.58 49.22 69.78 48.4 69.89 47.55 70 46.64 69.97 44.35 69.9 42.07 68.91 39.85 67.03 34.97 62.91 31.26 55.91 29.92 48.31 29.43 45.54 29.51 42.95 30.15 40.63 30.33 39.97 30.6 39.34 30.86 38.73 31.32 37.64 31.76 36.6 31.5 35.84 31.37 35.47 31.01 35.05 30.63 34.61 30.03 33.9 29.27 33.02 29 31.81 28.91 31.41 28.89 31.05 28.86 30.73 28.85 30.57 28.83 30.34 28.81 30.22 28.73 30.18 28.53 30.1 28.08 30.03 24.8 29.5 21.91 30.33 18.86 31.22 16.57 31.88 14.21 32.57 11.56 32.72 8.68 32.89 6.26 32.29 4.35 30.96 3.54 30.4-0.68 26.63 0.13 23.53 1.76 17.14 12.53 8.03 23.6 3.63 28.24 1.79 33.39 2.12 37.73 4.56L36.02 7.61C32.61 5.69 28.55 5.42 24.9 6.88 14.14 11.16 4.73 19.65 3.49 24.4 3.49 25.06 5.14 27.26 6.32 28.08 7.57 28.95 9.25 29.33 11.33 29.22 13.58 29.09 15.66 28.49 17.85 27.85 21.14 26.89 24.55 25.91 28.61 26.57 29.22 26.67 30.85 26.93 31.73 28.3 32.23 29.08 32.28 29.89 32.32 30.48 32.33 30.66 32.34 30.85 32.38 31.02 32.47 31.39 32.85 31.84 33.26 32.32 33.81 32.96 34.43 33.69 34.78 34.68 35.49 36.72 34.7 38.59 34.06 40.09 33.84 40.62 33.62 41.12 33.5 41.55 33 43.37 32.95 45.44 33.35 47.7 34.53 54.41 37.88 60.79 42.09 64.35 43.72 65.73 45.24 66.42 46.73 66.46 47.35 66.48 48.03 66.39 48.74 66.29 50.39 66.07 52.26 65.82 54.19 66.83 59.75 69.74 63.89 69.24 70.05 68.07 72.77 67.55 74.37 68.61 76.07 69.73L76.17 69.79C78.62 71.41 81.51 72.02 84.76 71.6 85.77 71.47 86.79 71.12 87.86 70.74 88.88 70.38 89.94 70.02 91.09 69.81 96.35 68.85 101.88 70.66 107.53 75.2 112.53 79.21 116.74 81.48 121.16 82.56 122.82 82.96 122.79 84.19 122.66 90.09 122.59 93.31 122.43 97.11 122.32 99.89 122.26 101.45 122.21 102.63 122.2 103.05L122.18 104.23 121.08 104.66C120.96 104.71 120.25 105.01 119.36 105.96L123.19 105.96 128.41 82.42 124.52 76.13C124.173 75.57 124.833 73.3567 126.5 69.49 127.74 66.62 129.61 62.29 129.8 61.59 131.37 54.94 131.62 47.65 130.46 41.61 129.65 37.34 126.47 33.52 122.37 31.88 122 31.73 121.41 31.5 120.96 30.94 120.54 30.43 120.42 29.88 120.34 29.56L120.29 29.34C119.63 26.48 119.23 24.75 117.16 23.26 115.58 22.13 113.46 21.5 110.47 21.26 109.68 21.2 108.89 21.18 108.1 21.16 106.39 21.12 104.63 21.07 102.83 20.64 101.24 20.26 99.75 19.66 98.32 19.08 97.37 18.7 96.47 18.33 95.55 18.03 92.21 16.95 88.76 17.45 85.11 17.98 84.11 18.13 83.1 18.27 82.1 18.39L81.77 18.43C80.08 18.63 78.16 18.85 76.22 18.21 75.19 17.87 74.32 17.34 73.55 16.88 72.75 16.4 72.07 15.98 71.33 15.81 69.88 15.47 68.11 15.59 66.07 16.17 64.73 16.55 63.43 17.08 62.05 17.63 60.88 18.1 59.67 18.59 58.42 18.99 54.85 20.13 51.18 20.12 47.8 18.98 44.48 17.86 42.79 16.42 41.13 13.28L44.22 11.64C45.46 13.97 46.47 14.83 48.92 15.66 51.59 16.56 54.51 16.56 57.36 15.66 58.49 15.3 59.58 14.86 60.74 14.39 62.14 13.83 63.59 13.24 65.11 12.81 67.74 12.06 70.1 11.93 72.14 12.42 73.41 12.72 74.45 13.35 75.36 13.9 76.03 14.31 76.67 14.69 77.32 14.91 78.53 15.31 79.91 15.15 81.37 14.98L81.7 14.94C82.67 14.83 83.63 14.69 84.6 14.55 88.49 13.98 92.52 13.4 96.63 14.73 97.66 15.07 98.66 15.47 99.62 15.86 101 16.41 102.29 16.94 103.63 17.26 105.07 17.6 106.58 17.64 108.18 17.68 109.03 17.7 109.88 17.72 110.73 17.79 114.39 18.07 117.08 18.91 119.2 20.43 122.34 22.69 123 25.54 123.7 28.57L123.72 28.67C128.88 30.78 132.86 35.59 133.89 40.98 135.13 47.49 134.88 55.31 133.19 62.43 133.01 63.18 132.02 65.54 129.7 70.9 129.04 72.43 128.31 74.11 127.93 75.03 128.44 75.85 129.5 77.58 131.74 81.2L132.11 81.81 126.61 106.6C126.67 106.98 126.71 107.36 126.71 107.74L126.71 109.49Z" fill="#4D4D4D"/><path d="M44.33 11.73C42.52 11.73 40.49 11.55 38.25 11.19L38.81 7.73C47.32 9.1 50.16 7.35 51.09 6.19 51.8 5.31 51.81 4.25 51.66 3.56 50.86 3.43 47.99 3.3 39.23 5.38L38.42 1.98C52.27-1.31 54.1 0.12 54.79 1.87 55.44 3.51 55.57 6.2 53.81 8.39 52.02 10.61 48.84 11.73 44.32 11.73Z" fill="#4D4D4D"/><path d="M54.78 109.46 41.16 109.46 42.45 106.92C43.96 103.94 45.75 102.5 46.89 101.83L48.59 68.31 52.09 68.49 50.24 105.01 48.76 104.8C48.46 104.96 47.93 105.31 47.31 105.97L51.35 105.97C51.73 100.54 53.79 94.93 55.79 89.48 58.06 83.3 60.4 76.91 60.4 70.71L63.9 70.71C63.9 77.53 61.45 84.22 59.08 90.68 56.87 96.69 54.79 102.37 54.79 107.71L54.79 109.46Z" fill="#4D4D4D"/></svg>