<svg viewBox="0 0 115.57 151.75" xmlns="http://www.w3.org/2000/svg" xmlns:xlink="http://www.w3.org/1999/xlink" id="Layer_1" overflow="hidden"><defs></defs><g><path d="M67.66 62.93C67.66 81.61 52.51 96.76 33.83 96.76 15.15 96.76 0 81.61 0 62.93 0 48.3 20.73 15.67 29.74 2.19 31.69-0.73 35.98-0.73 37.92 2.19 46.92 15.67 67.66 48.3 67.66 62.93Z" fill="#4CAF53"/><line x1="33.83" y1="62.23" x2="33.83" y2="151.75" stroke="#4D4D4D" stroke-width="3" stroke-miterlimit="10" fill="none"/><line x1="34.12" y1="78.93" x2="42.47" y2="70.58" stroke="#4D4D4D" stroke-width="3" stroke-miterlimit="10" fill="none"/></g><g><path d="M68.74 47.21C73.56 38.67 78.77 30.61 82.1 25.63 83.74 23.17 87.36 23.17 89 25.63 96.59 36.99 114.07 64.5 114.07 76.83 114.07 92.58 101.3 105.35 85.55 105.35 75.8 105.35 67.19 100.46 62.05 92.99" stroke="#4D4D4D" stroke-width="3" stroke-miterlimit="10" fill="none"/><line x1="85.55" y1="76.25" x2="85.55" y2="151.75" stroke="#4D4D4D" stroke-width="3" stroke-miterlimit="10" fill="none"/></g></svg>