<svg viewBox="0 0 109.64 33.16" xmlns="http://www.w3.org/2000/svg" xmlns:xlink="http://www.w3.org/1999/xlink" id="Isolation_Mode" overflow="hidden"><defs></defs><path d="M1.44 31.85 108.2 31.85C108.29 31.23 108.33 30.61 108.33 30 108.33 22.69 102.38 16.74 95.07 16.74 90.21 16.74 85.74 19.4 83.42 23.67L82.99 24.46 82.37 23.82C80.18 21.54 77.24 20.29 74.09 20.29 72.22 20.29 70.43 20.73 68.78 21.59L68.21 21.89 67.9 21.33C65.29 16.57 60.31 13.61 54.89 13.61 53.7 13.61 52.51 13.76 51.36 14.04L50.75 14.19 50.57 13.59C48.43 6.37 41.67 1.33 34.13 1.33 25.51 1.33 18.2 7.77 17.12 16.31L17.04 16.97 16.38 16.88C15.76 16.8 15.15 16.75 14.56 16.75 7.25 16.75 1.3 22.7 1.3 30.01 1.3 30.62 1.34 31.24 1.43 31.86M109.3 33.16 0.34 33.16 0.24 32.62C0.08 31.74 2.77556e-17 30.86 2.77556e-17 29.99 2.77556e-17 21.96 6.54 15.42 14.57 15.42 15.01 15.42 15.47 15.44 15.92 15.49 17.36 6.61 25.08 0 34.14 0 42.05 0 49.16 5.16 51.65 12.62 52.72 12.4 53.81 12.29 54.9 12.29 60.59 12.29 65.84 15.28 68.75 20.15 70.42 19.38 72.26 18.98 74.1 18.98 77.32 18.98 80.35 20.16 82.71 22.31 85.36 18.05 90.03 15.44 95.08 15.44 103.11 15.44 109.65 21.98 109.65 30.01 109.65 30.88 109.57 31.76 109.41 32.64L109.31 33.18Z" fill="#A7A9AC"/></svg>